<?xml version="1.0" encoding="utf-8"?>
<!-- Generator: Adobe Illustrator 26.5.0, SVG Export Plug-In . SVG Version: 6.00 Build 0)  -->
<svg version="1.1" id="Layer_1" xmlns="http://www.w3.org/2000/svg" xmlns:xlink="http://www.w3.org/1999/xlink" x="0px" y="0px"
	 viewBox="0 0 294.73 56.78" style="enable-background:new 0 0 294.73 56.78;" xml:space="preserve">
<g>
	<path d="M17.02,0C12.08,0,7.96,1.61,4.79,4.78C1.61,7.96,0,12.08,0,17.02c0,3.64,1.03,6.99,3.05,9.96c1.9,2.78,4.8,5.65,8.87,8.76
		c1.79,1.37,2.51,2.18,2.78,2.54c0.27,0.35,0.39,0.66,0.39,1c0,0.67-0.21,0.87-0.32,0.97c-0.25,0.24-0.68,0.36-1.3,0.36
		c-1.85,0-4.32-0.89-7.34-2.66l-3.16-1.84l-1.12-0.65v1.29v16.26v0.47l0.42,0.2l1.19,0.57c3.39,1.63,6.88,2.45,10.37,2.45
		c5.22,0,9.62-1.64,13.08-4.88c3.51-3.29,5.29-7.49,5.29-12.46c0-4.24-1.35-8.02-4-11.25c-2.39-2.91-4.81-5.22-7.19-6.86
		c-4.13-2.87-4.25-4.36-4.25-4.52c0-0.42,0.1-0.51,0.17-0.57c0.25-0.21,0.74-0.32,1.37-0.32c0.87,0,2.87,0.3,6.57,2.33l3.11,1.71
		l1.1,0.6v-1.25V3.46V2.98l-0.44-0.19l-1.26-0.55C23.98,0.75,20.5,0,17.02,0 M17.02,0.74c3.37,0,6.75,0.73,10.05,2.17l1.26,0.55
		v15.77l-3.11-1.71c-3.66-2-5.79-2.43-6.93-2.43c-0.84,0-1.46,0.17-1.85,0.5c-0.21,0.18-0.43,0.46-0.43,1.13
		c0,0.58,0.44,2.26,4.57,5.13c2.32,1.6,4.69,3.86,7.04,6.72c2.54,3.09,3.83,6.72,3.83,10.78c0,4.77-1.7,8.78-5.05,11.92
		c-3.31,3.11-7.54,4.69-12.57,4.69c-3.37,0-6.75-0.8-10.05-2.38l-1.19-0.57V36.75l3.16,1.84c3.14,1.83,5.74,2.76,7.72,2.76
		c1.22,0,1.67-0.42,1.81-0.56c0.25-0.24,0.55-0.63,0.55-1.51c0-0.51-0.17-0.97-0.54-1.45c-0.36-0.47-1.16-1.33-2.92-2.68
		c-4.01-3.06-6.86-5.87-8.71-8.59c-1.94-2.85-2.92-6.06-2.92-9.54c0-4.74,1.54-8.68,4.57-11.71C8.34,2.28,12.28,0.74,17.02,0.74"/>
	<path d="M4.69,51.69V40.41c3.48,2.03,6.41,3.05,8.78,3.05c1.38,0,2.47-0.38,3.26-1.14c0.8-0.76,1.2-1.77,1.2-3.03
		c0-0.97-0.32-1.87-0.96-2.72c-0.64-0.85-1.75-1.87-3.32-3.08c-3.8-2.9-6.55-5.6-8.25-8.1c-1.71-2.5-2.56-5.29-2.56-8.36
		c0-4.18,1.32-7.59,3.95-10.23c2.63-2.63,6.04-3.95,10.23-3.95c3.09,0,6.17,0.66,9.21,1.99v10.84C22.97,13.89,20.32,13,18.29,13
		c-1.36,0-2.42,0.33-3.21,1c-0.79,0.67-1.18,1.58-1.18,2.74c0,2.03,1.82,4.31,5.48,6.85c2.18,1.5,4.38,3.61,6.62,6.33
		c2.24,2.72,3.36,5.87,3.36,9.45c0,4.18-1.46,7.65-4.39,10.39c-2.92,2.74-6.63,4.12-11.13,4.12C10.76,53.87,7.72,53.14,4.69,51.69"
		/>
	<path d="M62.66,1.34h-0.74H31.49h-0.74v0.74v15.26v0.74h0.74h6.77V54.7v0.74H39h15.34h0.74V54.7V18.09h6.84h0.74v-0.74V2.08V1.34z
		 M61.92,2.08v15.26h-7.58V54.7H39V17.35h-7.51V2.08H61.92z"/>
	<polygon points="33.6,4.18 59.82,4.18 59.82,15.25 52.24,15.25 52.24,52.6 41.1,52.6 41.1,15.25 33.6,15.25 	"/>
	<path d="M79.8,32.96c0.07-0.35,0.15-0.71,0.22-1.06c0.07,0.35,0.15,0.71,0.22,1.06H79.8z M88.51,1.34h-0.57H72.38h-0.57l-0.15,0.55
		L57.71,54.51l-0.25,0.93h0.96h15.6h0.58l0.14-0.57l1.79-7.52h7.09l1.72,7.51l0.13,0.58h0.59h15.83h0.96l-0.25-0.93L88.66,1.89
		L88.51,1.34z M78.89,33.71h2.28c-0.41-1.89-0.79-3.76-1.15-5.61C79.67,29.96,79.29,31.83,78.89,33.71 M87.94,2.08l13.95,52.62
		H86.06l-1.85-8.09h-8.27l-1.92,8.09h-15.6L72.38,2.08H87.94z"/>
	<path d="M83.79,35.81c-1.65-7.2-2.88-14.06-3.7-20.56h-0.14c-0.87,6.7-2.09,13.55-3.66,20.56H83.79z M99.16,52.6H87.74l-1.85-8.09
		h-11.6l-1.92,8.09H61.16L74,4.18h12.33L99.16,52.6z"/>
	<path d="M120.4,21.82V16.8c0.54,0.18,0.8,0.36,0.9,0.45c0.44,0.38,0.7,1.36,0.7,2.67C122,20.54,122,21.34,120.4,21.82 M119.37,1.34
		h-14.9h-0.74v0.74V54.7v0.74h0.74h15.19h0.74V54.7v-9.94l4.12,10.21l0.19,0.46h0.5h16.13h1.1l-0.41-1.02l-9.05-22.53
		c1.65-1.26,2.98-2.86,3.97-4.77c1.34-2.59,2.03-5.31,2.03-8.11c0-5.4-1.83-9.76-5.45-12.97C129.99,2.92,125.23,1.34,119.37,1.34
		 M119.65,22.75c3.09-0.53,3.08-2.04,3.08-2.83c0-1.1-0.17-2.55-0.96-3.23c-0.28-0.25-0.89-0.61-2.13-0.84V22.75z M119.37,2.08
		c5.68,0,10.27,1.52,13.65,4.52c3.45,3.06,5.2,7.24,5.2,12.42c0,2.67-0.65,5.29-1.94,7.77c-1.03,1.99-2.45,3.61-4.22,4.85
		l9.27,23.06H125.2l-5.55-13.76V54.7h-15.19V2.08H119.37z"/>
	<path d="M117.55,13.54v11.5c4.86-0.1,7.29-1.8,7.29-5.11c0-2.25-0.56-3.85-1.69-4.82C122.03,14.13,120.16,13.61,117.55,13.54
		 M106.56,4.18h12.8c5.17,0,9.26,1.33,12.26,3.99c3,2.66,4.5,6.27,4.5,10.84c0,2.35-0.57,4.61-1.7,6.8
		c-1.14,2.19-2.79,3.84-4.97,4.95l8.78,21.83h-11.6l-8.88-22.05h-0.18V52.6h-10.99V4.18z"/>
	<path d="M159.74,40.07v-4.42c2.65,0.37,2.65,1.47,2.65,2.22c0,1.16-0.41,1.39-0.67,1.55C161.38,39.62,160.77,39.88,159.74,40.07
		 M159.74,20.69v-4.06c0.7,0.17,1.05,0.36,1.19,0.45c0.42,0.28,0.48,1.2,0.48,1.73C161.42,19.33,161.42,20.18,159.74,20.69
		 M157.08,1.34h-13.27h-0.74v0.74V54.7v0.74h0.74h16.46c5.47,0,10-1.53,13.44-4.55c3.56-3.11,5.36-7.24,5.36-12.26
		c0-4.65-1.68-8.44-4.88-11c2.69-2.73,4.05-6.05,4.05-9.89c0-4.77-1.76-8.76-5.23-11.86C169.58,2.83,164.37,1.34,157.08,1.34
		 M159,40.93c1.62-0.19,2.56-0.55,3.1-0.87c0.51-0.3,1.04-0.79,1.04-2.19c0-0.92,0-2.75-4.14-3.04V40.93z M159,21.62
		c3.16-0.55,3.16-2.09,3.16-2.82c0-1.81-0.61-2.21-0.81-2.34c-0.33-0.21-1.01-0.53-2.34-0.73V21.62z M157.08,2.08
		c7.1,0,12.15,1.43,15.44,4.36c3.3,2.96,4.98,6.76,4.98,11.3c0,3.92-1.49,7.26-4.45,9.96c3.47,2.42,5.28,6.14,5.28,10.93
		c0,4.8-1.72,8.73-5.1,11.7c-3.31,2.9-7.66,4.37-12.95,4.37h-16.46V2.08H157.08z"/>
	<path d="M156.9,32.69v10.48c2.78-0.05,4.86-0.48,6.25-1.29c1.39-0.81,2.09-2.15,2.09-4.01c0-3.46-2.48-5.18-7.43-5.18H156.9z
		 M156.9,13.47v10.44c4.91-0.12,7.36-1.83,7.36-5.11c0-1.96-0.58-3.32-1.76-4.1C161.33,13.93,159.46,13.52,156.9,13.47 M145.91,4.18
		h11.17c6.5,0,11.18,1.28,14.04,3.83c2.85,2.55,4.28,5.8,4.28,9.74c0,4.26-2.08,7.68-6.24,10.26c4.72,1.86,7.07,5.4,7.07,10.63
		c0,4.18-1.46,7.56-4.39,10.12c-2.93,2.56-6.78,3.84-11.57,3.84h-14.36V4.18z"/>
	<path d="M217.62,1.34h-0.74h-15.41h-0.74v0.74v35.79c0,1.02-0.2,1.79-0.59,2.24c-0.15,0.18-0.44,0.5-1.35,0.5
		c-0.88,0-1.16-0.3-1.3-0.47c-0.36-0.39-0.53-1-0.53-1.88V2.08V1.34h-0.74h-15.48h-0.74v0.74v32.16c0,7.87,1.38,13.42,4.21,16.97
		c2.95,3.69,7.86,5.57,14.59,5.57c4.5,0,7.98-0.72,10.64-2.19c2.76-1.52,4.87-3.92,6.26-7.1c1.29-2.96,1.94-6.84,1.94-11.54V2.08
		V1.34z M216.88,2.08v33.87c0,4.6-0.63,8.38-1.88,11.25c-1.32,3.04-3.32,5.31-5.93,6.75c-2.55,1.41-5.92,2.09-10.28,2.09
		c-6.49,0-11.21-1.78-14.01-5.29c-2.72-3.41-4.05-8.81-4.05-16.51V2.08h15.48v36.19c0,1.06,0.24,1.84,0.72,2.37
		c0.3,0.33,0.78,0.71,1.85,0.71c1.11,0,1.6-0.41,1.91-0.76c0.51-0.59,0.77-1.51,0.77-2.72V2.08H216.88z"/>
	<path d="M182.83,4.18h11.28v34.09c0,1.59,0.42,2.86,1.27,3.79c0.85,0.93,1.98,1.4,3.41,1.4c1.47,0,2.64-0.5,3.5-1.49
		c0.86-0.99,1.29-2.36,1.29-4.1V4.18h11.21v31.77c0,4.33-0.57,7.8-1.71,10.41c-1.14,2.61-2.81,4.53-5.02,5.75
		c-2.21,1.22-5.3,1.83-9.27,1.83c-5.85,0-9.97-1.5-12.37-4.5c-2.39-3-3.59-8.06-3.59-15.2V4.18z"/>
	<path d="M243.61,0c-6.94,0-12.76,2.71-17.29,8.06c-4.42,5.21-6.66,11.85-6.66,19.74c0,8.43,2.21,15.38,6.58,20.65
		c4.5,5.44,10.44,8.19,17.66,8.19c2.12,0,4.52-0.42,7.11-1.26l1.46-0.47l0.51-0.17V54.2V38.22v-1.04l-0.98,0.34l-2.79,0.97
		c-1.77,0.62-3.29,0.93-4.5,0.93c-2.27,0-3.96-0.84-5.32-2.66c-1.51-2.01-2.28-4.91-2.28-8.61c0-3.41,0.77-6.2,2.29-8.31
		c1.35-1.87,2.88-2.74,4.8-2.74c1.55,0,3.24,0.3,5.05,0.9l2.77,0.92l0.97,0.33v-1.03V2.25V1.7l-0.52-0.16l-1.47-0.46
		C248.74,0.36,246.26,0,243.61,0 M243.61,0.74c2.57,0,4.98,0.35,7.16,1.04l1.47,0.46v15.99l-2.77-0.92
		c-1.88-0.63-3.66-0.94-5.28-0.94c-2.16,0-3.92,1-5.4,3.05c-1.61,2.23-2.43,5.17-2.43,8.74c0,3.87,0.82,6.91,2.43,9.05
		c1.49,1.98,3.43,2.95,5.92,2.95c1.3,0,2.9-0.33,4.75-0.97l2.79-0.97V54.2l-1.46,0.47c-2.52,0.81-4.84,1.23-6.88,1.23
		c-6.99,0-12.73-2.67-17.09-7.92c-4.25-5.14-6.41-11.93-6.41-20.18c0-7.71,2.18-14.19,6.48-19.26
		C231.27,3.36,236.9,0.74,243.61,0.74"/>
	<path d="M250.13,41.17v11.5c-2.32,0.75-4.4,1.12-6.24,1.12c-6.36,0-11.52-2.39-15.47-7.16c-3.95-4.77-5.93-11.05-5.93-18.84
		c0-7.23,1.99-13.2,5.98-17.9c3.99-4.7,9.03-7.05,15.12-7.05c2.37,0,4.54,0.31,6.53,0.94v11.53c-2.1-0.7-4.09-1.05-5.95-1.05
		c-2.85,0-5.22,1.3-7.11,3.92c-1.89,2.61-2.83,5.93-2.83,9.97c0,4.35,0.95,7.79,2.85,10.32c1.9,2.53,4.43,3.79,7.6,3.79
		C246.24,42.26,248.05,41.9,250.13,41.17"/>
	<path d="M294.73,1.34h-1.15h-16.15h-0.48l-0.2,0.43l-5.68,12.48V2.08V1.34h-0.74h-15.19h-0.74v0.74V54.7v0.74h0.74h15.19h0.74V54.7
		v-9.76l4.68,10.07l0.2,0.43h0.47h16.68h1.15l-0.48-1.05L282.2,28.92l12.06-26.53L294.73,1.34z M293.58,2.08l-12.2,26.83
		l11.73,25.78h-16.68l-6.09-13.11V54.7h-15.19V2.08h15.19v15.59l7.1-15.59H293.58z"/>
	<polygon points="257.24,4.18 268.23,4.18 268.23,26.96 268.41,26.96 278.78,4.18 290.31,4.18 279.07,28.92 289.84,52.6 
		277.77,52.6 268.41,32.47 268.23,32.47 268.23,52.6 257.24,52.6 	"/>
</g>
</svg>
